# xmcd
#
# Track frame offsets: 
#        150
#        19809
#        34960
#        53611
#        71194
#        87506
#        98089
#        113220
#        134817
#        152590
#        170312
#        186349
#        206540
#
# Disc length: 3056 seconds
#
# Revision: 3
# Processed by: cddbd v1.5.2PL0 Copyright (c) Steve Scherf et al.
# Submitted via: ExactAudioCopy v1.1
#
DISCID=b70bee0d
DTITLE=Dana Fuchs - Love to beg
DYEAR=2011
DGENRE=Rock 'n' Roll
TTITLE0=Love to beg
TTITLE1=Nothing's what I cry for
TTITLE2=Golden eyes
TTITLE3=Keepsake
TTITLE4=Set it on fire
TTITLE5=Faster than we can
TTITLE6=Keep on rollin'
TTITLE7=Drive
TTITLE8=Summersong
TTITLE9=Pretty girl
TTITLE10=I've been loving you too long
TTITLE11=What you see
TTITLE12=Superman
EXTD=Year: 2011\n\n\n\n\n\n                                           
EXTD=            www.danafuchs.com
EXTT0=
EXTT1=
EXTT2=
EXTT3=
EXTT4=
EXTT5=
EXTT6=
EXTT7=
EXTT8=
EXTT9=
EXTT10=
EXTT11=
EXTT12=
PLAYORDER=
